# xmcd
#
# Track frame offsets: 
#        183
#        17503
#        33728
#        48073
#        62470
#        78155
#        90653
#        106805
#        119775
#        131643
#
# Disc length: 1855 seconds
#
# Revision: 2
# Processed by: cddbd v1.5PL3 Copyright (c) Steve Scherf et al.
# Submitted via: ExactAudioCopy v0.90b4
#
DISCID=77073d0a
DTITLE=The Forester Sisters - All I Need
DYEAR=1900
DGENRE=Country
TTITLE0=All I Need
TTITLE1=Love Will
TTITLE2=Still In The Spirit
TTITLE3=Precious Memories
TTITLE4=Amazing Grace
TTITLE5=Already There
TTITLE6=This Old House
TTITLE7=Peace Within
TTITLE8=Love Lifted Me
TTITLE9=Motherless Child
EXTD=
EXTT0=
EXTT1=
EXTT2=
EXTT3=
EXTT4=
EXTT5=
EXTT6=
EXTT7=
EXTT8=
EXTT9=
PLAYORDER=
